# AST/ASF file generated using VICON BodyLanguage
# -----------------------------------------------
:version 1.10
:name VICON
:units
  mass 1.0
  length 0.45
  angle deg
:documentation
   .ast/.asf automatically generated from VICON data using
   VICON BodyBuilder and BodyLanguage model FoxedUp or BRILLIANT.MOD
:root
   order TX TY TZ RX RY RZ
   axis XYZ
   position 0 0 0  
   orientation 0 0 0 
:bonedata
  begin
     id 1 
     name lhipjoint
     direction 0.621036 -0.695554 0.361275 
     length 2.46325 
     axis 0 0 0  XYZ
  end
  begin
     id 2 
     name lfemur
     direction 0.34202 -0.939693 0  
     length 6.54784  
     axis 0 0 20  XYZ
    dof rx ry rz
    limits (-160.0 20.0)
           (-70.0 70.0)
           (-60.0 70.0)
  end
  begin
     id 3 
     name ltibia
     direction 0.34202 -0.939693 0   
     length 7.84737   
     axis 0 0 20   XYZ
    dof rx
    limits (-10.0 170.0)
  end
  begin
     id 4 
     name lfoot
     direction 0.0790693 -0.217241 0.97291   
     length 2.59747   
     axis -90 7.62852e-016 20   XYZ
    dof rx rz
    limits (-45.0 90.0)
           (-70.0 20.0)
  end
  begin
     id 5 
     name ltoes
     direction 1.53572e-011 -4.21898e-011 1   
     length 1.29919   
     axis -90 7.62852e-016 20   XYZ
    dof rx
    limits (-90.0 20.0)
  end
  begin
     id 6 
     name rhipjoint
     direction -0.602353 -0.708375 0.367935   
     length 2.41867  
     axis 0 0 0  XYZ 
  end
  begin
     id 7 
     name rfemur
     direction -0.34202 -0.939693 0   
     length 6.92065   
     axis 0 0 -20   XYZ
    dof rx ry rz
    limits (-160.0 20.0)
           (-70.0 70.0)
           (-70.0 60.0)
  end
  begin
     id 8 
     name rtibia
     direction -0.34202 -0.939693 0   
     length 7.88883   
     axis 0 0 -20   XYZ
    dof rx
    limits (-10.0 170.0)
 end
 begin
     id 9 
     name rfoot
     direction -0.0768692 -0.211196 0.974416   
     length 2.43714  
     axis -90 -7.62852e-016 -20   XYZ
    dof rx rz
    limits (-45.0 90.0)
           (-20.0 70.0)
  end
  begin
     id 10 
     name rtoes
     direction -1.53575e-011 -4.21933e-011 1   
     length 1.22113   
     axis -90 -7.62852e-016 -20   XYZ
    dof rx
    limits (-90.0 20.0)
  end
  begin
     id 11 
     name lowerback
     direction 0.0197937 0.98943 -0.143655   
     length 2.16931   
     axis 0 0 0   XYZ
    dof rx ry rz
    limits (-20.0 45.0)
           (-30.0 30.0)
           (-30.0 30.0)
  end
  begin
     id 12 
     name upperback
     direction -0.00183968 0.999975 0.00684288   
     length 2.17221   
     axis 0 0 0   XYZ
    dof rx ry rz
    limits (-20.0 45.0)
           (-30.0 30.0)
           (-30.0 30.0)
  end
  begin
     id 13 
     name thorax
     direction -0.00950244 0.997208 0.0740685   
     length 2.22549   
     axis 0 0 0   XYZ
    dof rx ry rz
    limits (-20.0 45.0)
           (-30.0 30.0)
           (-30.0 30.0)
  end
  begin
     id 14 
     name lowerneck
     direction 0.0218238 0.996215 0.0841425   
     length 1.77269   
     axis 0 0 0   XYZ
    dof rx ry rz
    limits (-20.0 45.0)
           (-30.0 30.0)
           (-30.0 30.0)
  end
  begin
     id 15 
     name upperneck
     direction -0.00430652 0.994214 -0.107332   
     length 1.76534   
     axis 0 0 0   XYZ
    dof rx ry rz
    limits (-20.0 45.0)
           (-30.0 30.0)
           (-30.0 30.0)
  end
  begin
     id 16
     name head
     direction -0.00328946 0.998959 -0.0454998  
     length 1.82634  
     axis 0 0 0   XYZ
    dof rx ry rz
    limits (-20.0 45.0)
           (-30.0 30.0)
           (-30.0 30.0)
  end
  begin
     id 17 
     name lclavicle
     direction 0.970962 0.239191 0.00450212  
     length 3.84872  
     axis 0 0 0   XYZ
    dof ry rz
    limits (-20.0 10.0)
           (0.0 20.0)
  end
  begin
     id 18 
     name lhumerus
     direction 1 -4.48966e-011 5.74696e-028   
     length 5.22771   
     axis 180 -30 -90   XYZ
    dof rx ry rz
    limits (-60.0 90.0)
           (-90.0 90.0)
           (-90.0 90.0)
  end
  begin
     id 19
     name lradius
     direction 1 -4.4896e-011 4.25109e-027   
     length 3.45251   
     axis 180 -30 -90   XYZ
    dof rx
    limits (-10.0 170.0)
  end
  begin
     id 20
     name lwrist
     direction 1 -4.48971e-011 1.15382e-027   
     length 1.72626   
     axis -5.52449e-016 90 90   XYZ
    dof ry
    limits (-180.0 0.0)
 end
  begin
     id 21 
     name lhand
     direction 1 -4.49034e-011 2.30765e-027   
     length 0.552119   
     axis -1.47248e-015 90 90   XYZ
    dof rx rz
    limits (-90.0 90.0)
           (-45.0 45.0)
  end
  begin
     id 22 
     name lfingers
     direction 1 -4.48951e-011 4.61529e-027   
     length 0.445133   
     axis -2.94495e-015 90 90   XYZ
    dof rx
    limits (0.0 90.0)
  end
  begin
     id 23
     name lthumb
     direction 0.707107 -6.34991e-011 0.707107   
     length 0.639124   
     axis -90 45 2.85299e-015   XYZ
    dof rx rz
    limits (-45.0 45.0)
           (-45.0 45.0)
  end
  begin
     id 24 
     name rclavicle
     direction -0.97424 0.222511 -0.0366699   
     length 3.73439  
     axis 0 0 0   XYZ 
    dof ry rz
    limits (-10.0 20.0)
           (-20.0 0.0)
  end
  begin
     id 25 
     name rhumerus
     direction -1 -4.48956e-011 -4.97258e-028  
     length 5.2398   
     axis 180 30 90   XYZ
    dof rx ry rz
    limits (-90.0 60.0)
           (-90.0 90.0)
           (-90.0 90.0)
  end
  begin
     id 26 
     name rradius
     direction -1 -4.4897e-011 -1.72611e-027   
     length 3.48042   
     axis 180 30 90   XYZ
    dof rx
    limits (-10.0 170.0)
  end
  begin
     id 27 
     name rwrist
     direction -1 -4.48976e-011 1.15382e-027   
     length 1.74021   
     axis -5.52449e-016 -90 -90   XYZ
    dof ry
    limits (-180.0 0.0)
  end
  begin
     id 28
     name rhand
     direction -1 -4.48963e-011 2.30765e-027   
     length 0.618713   
     axis -1.47248e-015 -90 -90   XYZ
    dof rx rz
    limits (-90.0 90.0)
           (-45.0 45.0)
  end
  begin
     id 29
     name rfingers
     direction -1 -4.4888e-011 4.61529e-027   
     length 0.498823   
     axis -2.94495e-015 -90 -90   XYZ
    dof rx
    limits (0.0 90.0)
  end
  begin
     id 30
     name rthumb
     direction -0.707107 -6.34968e-011 0.707107   
     length 0.716213   
     axis -90 -45 -2.85299e-015   XYZ
    dof rx rz
    limits (-45.0 45.0)
           (-45.0 45.0)
  end
:hierarchy
  begin
    root lhipjoint rhipjoint lowerback
    lhipjoint lfemur
    lfemur ltibia
    ltibia lfoot
    lfoot ltoes
    rhipjoint rfemur
    rfemur rtibia
    rtibia rfoot
    rfoot rtoes
    lowerback upperback
    upperback thorax
    thorax lowerneck lclavicle rclavicle
    lowerneck upperneck
    upperneck head
    lclavicle lhumerus
    lhumerus lradius
    lradius lwrist
    lwrist lhand lthumb
    lhand lfingers
    rclavicle rhumerus
    rhumerus rradius
    rradius rwrist
    rwrist rhand rthumb
    rhand rfingers
  end

#!OML:ASF G:\JayActor3\Patient Classification 1\Patient 1\Session 5\male.ASF
:FULLY-SPECIFIED
:DEGREES
140
root -27.9486 16.8799 -5.74727 245.235 83.9996 246.534
lowerback 1.8699 -0.3753 6.0571
upperback 2.69443 -0.421275 0.498699
thorax 1.6896 -0.0847522 -2.87794
lowerneck -10.2586 -1.73606 1.58193
upperneck 12.4175 -2.98256 3.26065
head 5.4624 -1.11312 0.536592
rclavicle 1.9133e-015 9.93923e-015
rhumerus -27.774 -3.38705 -85.0905
rradius 26.9447
rwrist 3.63112
rhand -18.8705 -5.55864
rfingers 7.12502
rthumb 7.43011 -35.4082
lclavicle 1.9133e-015 9.93923e-015
lhumerus -32.8113 3.00431 84.4894
lradius 29.7473
lwrist 14.6888
lhand -18.3068 14.5728
lfingers 7.12502
lthumb 7.97423 44.4023
rfemur -5.09662 -0.137196 31.5879
rtibia 29.9622
rfoot -25.3902 -11.5292
rtoes 7.46626
lfemur -22.448 -0.0535858 -12.5921
ltibia 57.8255
lfoot -12.6606 12.0978
ltoes -11.4483
141
root -27.8343 16.8657 -5.73387 246.437 83.976 247.701
lowerback 1.85988 -0.321263 6.18513
upperback 2.65883 -0.348307 0.478602
thorax 1.66524 -0.0475657 -2.97074
lowerneck -10.2442 -1.74944 1.57243
upperneck 12.4594 -3.00234 3.28241
head 5.47377 -1.12045 0.543449
rclavicle 3.50358e-015 2.38542e-015
rhumerus -27.4307 -3.18893 -85.2244
rradius 26.7916
rwrist 3.76493
rhand -18.9152 -5.54635
rfingers 7.12502
rthumb 7.38697 -35.3974
lclavicle 3.50358e-015 2.38542e-015
lhumerus -32.995 3.01651 84.3843
lradius 29.7692
lwrist 14.632
lhand -18.311 14.6025
lfingers 7.12502
lthumb 7.97015 44.4322
rfemur -4.6191 -0.137667 31.7372
rtibia 29.8359
rfoot -25.662 -11.4338
rtoes 7.36937
lfemur -23.2823 -0.247639 -12.7372
ltibia 56.6911
lfoot -13.2392 12.2108
ltoes -11.7202
142
root -27.7192 16.8531 -5.72094 247.721 83.953 248.954
lowerback 1.85586 -0.265396 6.31203
upperback 2.62606 -0.272457 0.461375
thorax 1.64111 -0.00893172 -3.05997
lowerneck -10.2263 -1.76306 1.56167
upperneck 12.4876 -3.02134 3.30039
head 5.48017 -1.12816 0.549458
rclavicle -2.18663e-015 -1.59028e-015
rhumerus -27.0976 -2.99475 -85.3579
rradius 26.6579
rwrist 3.89534
rhand -18.9579 -5.5239
rfingers 7.12502
rthumb 7.34582 -35.3764
lclavicle -2.18663e-015 -1.59028e-015
lhumerus -33.175 3.06232 84.279
lradius 29.7719
lwrist 14.5765
lhand -18.3348 14.6511
lfingers 7.12502
lthumb 7.9472 44.4817
rfemur -4.09681 -0.13436 31.885
rtibia 29.6373
rfoot -25.8912 -11.3537
rtoes 7.25513
lfemur -24.0363 -0.368928 -12.8797
ltibia 55.4243
lfoot -13.7766 12.2938
ltoes -12.1099
143
root -27.6033 16.8422 -5.70846 249.057 83.9262 250.263
lowerback 1.85782 -0.210671 6.44003
upperback 2.597 -0.197662 0.447438
thorax 1.61774 0.0292711 -3.14641
lowerneck -10.2097 -1.77361 1.55422
upperneck 12.5024 -3.03547 3.31077
head 5.48237 -1.13429 0.552944
rclavicle 8.59744e-015 2.38542e-015
rhumerus -26.778 -2.79109 -85.4939
rradius 26.5559
rwrist 4.01667
rhand -18.9919 -5.50465
rfingers 7.12502
rthumb 7.31296 -35.3583
lclavicle 8.59744e-015 2.38542e-015
lhumerus -33.3514 3.14214 84.1715
lradius 29.7605
lwrist 14.5343
lhand -18.362 14.6977
lfingers 7.12502
lthumb 7.92097 44.5292
rfemur -3.53107 -0.131467 32.0346
rtibia 29.3665
rfoot -26.0719 -11.2986
rtoes 7.11676
lfemur -24.7166 -0.420906 -13.0186
ltibia 54.0365
lfoot -14.2635 12.3353
ltoes -12.5733
144
root -27.4866 16.8331 -5.69642 250.452 83.8993 251.629
lowerback 1.86553 -0.156774 6.56316
upperback 2.57022 -0.123535 0.437515
thorax 1.59378 0.067041 -3.226
lowerneck -10.199 -1.78215 1.54557
upperneck 12.5065 -3.04595 3.31536
head 5.48214 -1.13942 0.555067
rclavicle -2.33572e-015 1.47101e-014
rhumerus -26.4735 -2.57829 -85.6305
rradius 26.4891
rwrist 4.12499
rhand -19.022 -5.49501
rfingers 7.12502
rthumb 7.2839 -35.3496
lclavicle -2.33572e-015 1.47101e-014
lhumerus -33.5213 3.27467 84.0542
lradius 29.7226
lwrist 14.4969
lhand -18.3702 14.7192
lfingers 7.12502
lthumb 7.91306 44.5511
rfemur -2.92555 -0.126636 32.1822
rtibia 29.0231
rfoot -26.2077 -11.2697
rtoes 6.96076
lfemur -25.3291 -0.402898 -13.1604
ltibia 52.5415
lfoot -14.6796 12.3296
ltoes -12.996
145
root -27.369 16.8255 -5.68484 251.895 83.8691 253.043
lowerback 1.8745 -0.104115 6.68529
upperback 2.54368 -0.0509074 0.429826
thorax 1.56952 0.10398 -3.30274
lowerneck -10.1908 -1.78639 1.53965
upperneck 12.5034 -3.05064 3.31727
head 5.47993 -1.142 0.556346
rclavicle -5.24295e-015 2.8625e-014
rhumerus -26.1914 -2.36013 -85.7695
rradius 26.4621
rwrist 4.20967
rhand -19.0507 -5.49114
rfingers 7.12502
rthumb 7.25624 -35.3467
lclavicle -5.24295e-015 2.8625e-014
lhumerus -33.6913 3.44667 83.927
lradius 29.6609
lwrist 14.4818
lhand -18.3673 14.7537
lfingers 7.12502
lthumb 7.91589 44.5855
rfemur -2.28068 -0.123067 32.3299
rtibia 28.6058
rfoot -26.2978 -11.262
rtoes 6.81065
lfemur -25.8808 -0.314659 -13.306
ltibia 50.9534
lfoot -14.9806 12.2992
ltoes -13.3349
146
root -27.2501 16.8194 -5.67393 253.373 83.8405 254.489
lowerback 1.87809 -0.051354 6.80408
upperback 2.52057 0.0213381 0.421779
thorax 1.55212 0.140939 -3.378
lowerneck -10.1845 -1.78797 1.53726
upperneck 12.486 -3.05165 3.31629
head 5.47344 -1.14322 0.556448
rclavicle -3.23025e-016 -9.54166e-015
rhumerus -25.9297 -2.14572 -85.9099
rradius 26.4748
rwrist 4.2676
rhand -19.0849 -5.4986
rfingers 7.12502
rthumb 7.22317 -35.3553
lclavicle -3.23025e-016 -9.54166e-015
lhumerus -33.8567 3.6602 83.7884
lradius 29.5678
lwrist 14.4689
lhand -18.3455 14.7697
lfingers 7.12502
lthumb 7.93684 44.6007
rfemur -1.59543 -0.125044 32.4689
rtibia 28.1157
rfoot -26.3583 -11.2674
rtoes 6.64061
lfemur -26.3719 -0.169193 -13.4625
ltibia 49.2865
lfoot -15.1794 12.244
ltoes -13.4582
